<svg width="1089" height="144" viewBox="0 0 1089 144" fill="none" xmlns="http://www.w3.org/2000/svg">
<path d="M992.846 32C970.15 32 944.81 57.0972 936.166 66.4251C927.522 57.0931 902.182 32 879.486 32C854.134 32 839 47.1336 839 72.4858C839 97.8381 854.134 112.972 879.486 112.972C902.182 112.972 927.522 87.8745 936.166 78.5466C944.81 87.8785 970.15 112.972 992.846 112.972C1018.2 112.972 1033.33 97.8381 1033.33 72.4858C1033.33 47.1336 1018.2 32 992.846 32ZM879.486 104.874C851.308 104.874 847.097 84.583 847.097 72.4858C847.097 60.3887 851.308 40.0972 879.486 40.0972C899.17 40.0972 923.219 64.3522 930.729 72.4858C923.223 80.6235 899.198 104.874 879.486 104.874ZM992.846 104.874C973.162 104.874 949.113 80.6194 941.603 72.4858C949.109 64.3482 973.134 40.0972 992.846 40.0972C1021.02 40.0972 1025.23 60.3887 1025.23 72.4858C1025.23 84.583 1021.02 104.874 992.846 104.874Z" fill="#DBB246"/>
<path d="M992.846 32C970.15 32 944.81 57.0972 936.166 66.4251C927.522 57.0931 902.182 32 879.486 32C854.134 32 839 47.1336 839 72.4858C839 97.8381 854.134 112.972 879.486 112.972C902.182 112.972 927.522 87.8745 936.166 78.5466C944.81 87.8785 970.15 112.972 992.846 112.972C1018.2 112.972 1033.33 97.8381 1033.33 72.4858C1033.33 47.1336 1018.2 32 992.846 32ZM879.486 104.874C851.308 104.874 847.097 84.583 847.097 72.4858C847.097 60.3887 851.308 40.0972 879.486 40.0972C899.17 40.0972 923.219 64.3522 930.729 72.4858C923.223 80.6235 899.198 104.874 879.486 104.874ZM992.846 104.874C973.162 104.874 949.113 80.6194 941.603 72.4858C949.109 64.3482 973.134 40.0972 992.846 40.0972C1021.02 40.0972 1025.23 60.3887 1025.23 72.4858C1025.23 84.583 1021.02 104.874 992.846 104.874Z" fill="url(#paint0_diamond)"/>
<path d="M1048.51 32C1025.82 32 1000.48 57.0972 991.834 66.4251C983.19 57.0931 957.85 32 935.154 32C909.802 32 894.668 47.1336 894.668 72.4858C894.668 97.8381 909.802 112.972 935.154 112.972C957.85 112.972 983.19 87.8745 991.834 78.5466C1000.48 87.8785 1025.82 112.972 1048.51 112.972C1073.87 112.972 1089 97.8381 1089 72.4858C1089 47.1336 1073.87 32 1048.51 32ZM935.154 104.874C906.976 104.874 902.765 84.583 902.765 72.4858C902.765 60.3887 906.976 40.0972 935.154 40.0972C954.838 40.0972 978.887 64.3522 986.397 72.4858C978.891 80.6235 954.866 104.874 935.154 104.874ZM1048.51 104.874C1028.83 104.874 1004.78 80.6194 997.271 72.4858C1004.78 64.3482 1028.8 40.0972 1048.51 40.0972C1076.69 40.0972 1080.9 60.3887 1080.9 72.4858C1080.9 84.583 1076.69 104.874 1048.51 104.874Z" fill="#DBB246"/>
<path d="M1048.51 32C1025.82 32 1000.48 57.0972 991.834 66.4251C983.19 57.0931 957.85 32 935.154 32C909.802 32 894.668 47.1336 894.668 72.4858C894.668 97.8381 909.802 112.972 935.154 112.972C957.85 112.972 983.19 87.8745 991.834 78.5466C1000.48 87.8785 1025.82 112.972 1048.51 112.972C1073.87 112.972 1089 97.8381 1089 72.4858C1089 47.1336 1073.87 32 1048.51 32ZM935.154 104.874C906.976 104.874 902.765 84.583 902.765 72.4858C902.765 60.3887 906.976 40.0972 935.154 40.0972C954.838 40.0972 978.887 64.3522 986.397 72.4858C978.891 80.6235 954.866 104.874 935.154 104.874ZM1048.51 104.874C1028.83 104.874 1004.78 80.6194 997.271 72.4858C1004.78 64.3482 1028.8 40.0972 1048.51 40.0972C1076.69 40.0972 1080.9 60.3887 1080.9 72.4858C1080.9 84.583 1076.69 104.874 1048.51 104.874Z" fill="url(#paint1_diamond)"/>
<path d="M13.104 108V7.19999H18.432V103.248H74.016V108H13.104ZM135.738 81.072C135.738 88.848 133.002 95.52 127.53 101.088C122.058 106.56 115.386 109.296 107.514 109.296C99.738 109.296 93.114 106.56 87.642 101.088C82.17 95.52 79.434 88.896 79.434 81.216C79.434 73.44 82.17 66.816 87.642 61.344C93.114 55.776 99.738 52.992 107.514 52.992C115.386 52.992 122.058 55.728 127.53 61.2C133.002 66.672 135.738 73.296 135.738 81.072ZM84.762 81.072C84.762 87.696 86.874 93.264 91.098 97.776C95.418 102.288 100.89 104.544 107.514 104.544C114.234 104.544 119.706 102.288 123.93 97.776C128.25 93.264 130.41 87.696 130.41 81.072C130.41 74.352 128.25 68.784 123.93 64.368C119.706 59.952 114.234 57.744 107.514 57.744C100.89 57.744 95.418 59.952 91.098 64.368C86.874 68.784 84.762 74.352 84.762 81.072ZM150.947 54.144H155.699L156.275 68.544C158.291 63.936 161.267 60.24 165.203 57.456C169.139 54.672 173.699 53.184 178.883 52.992L178.739 57.744C172.787 57.936 167.747 59.904 163.619 63.648C159.491 67.392 157.043 72.144 156.275 77.904V108H150.947V54.144ZM236.077 72.576L189.997 90.432C191.725 94.752 194.413 98.208 198.061 100.8C201.805 103.392 206.461 104.688 212.029 104.688C217.597 104.688 222.493 102.72 226.717 98.784L230.317 101.664C224.941 106.848 218.461 109.44 210.877 109.44C203.293 109.44 196.765 106.704 191.293 101.232C185.821 95.664 183.085 89.04 183.085 81.36C183.085 73.584 185.821 66.96 191.293 61.488C196.765 55.92 203.389 53.136 211.165 53.136C217.309 53.136 222.493 54.912 226.717 58.464C231.037 62.016 234.157 66.72 236.077 72.576ZM188.413 81.216C188.413 82.272 188.509 83.76 188.701 85.68L229.885 69.696C225.949 61.824 219.709 57.888 211.165 57.888C204.541 57.888 199.069 60.096 194.749 64.512C190.525 68.928 188.413 74.496 188.413 81.216ZM299.71 108H294.382V69.12C294.19 65.952 292.99 63.312 290.782 61.2C288.574 59.088 285.358 57.936 281.134 57.744C274.798 57.744 269.326 59.664 264.718 63.504C260.11 67.344 257.806 72.144 257.806 77.904V108H252.478V54.144H257.23L257.806 68.544C259.822 63.84 262.846 60.096 266.878 57.312C271.006 54.528 275.758 53.136 281.134 53.136C286.606 53.04 291.022 54.48 294.382 57.456C297.742 60.432 299.518 64.32 299.71 69.12V108ZM368.249 108H362.921V99.36L363.353 92.88C361.337 97.776 358.217 101.76 353.993 104.832C349.769 107.808 344.921 109.296 339.449 109.296C331.673 109.296 325.049 106.56 319.577 101.088C314.105 95.52 311.369 88.896 311.369 81.216C311.369 73.44 314.105 66.816 319.577 61.344C325.049 55.776 331.673 52.992 339.449 52.992C345.017 52.992 349.817 54.432 353.849 57.312C357.881 60.192 360.905 64.032 362.921 68.832L363.641 54H368.249V108ZM316.697 81.072C316.697 87.696 318.809 93.264 323.033 97.776C327.353 102.288 332.825 104.544 339.449 104.544C346.169 104.544 351.641 102.288 355.865 97.776C360.185 93.264 362.345 87.696 362.345 81.072C362.345 74.352 360.185 68.784 355.865 64.368C351.641 59.952 346.169 57.744 339.449 57.744C332.825 57.744 327.353 59.952 323.033 64.368C318.809 68.784 316.697 74.352 316.697 81.072ZM515.213 14.256L511.325 18.288C503.837 13.68 495.773 11.376 487.133 11.376C474.461 11.376 463.613 15.936 454.589 25.056C445.565 34.176 441.053 45.072 441.053 57.744C441.053 70.416 445.565 81.264 454.589 90.288C463.613 99.312 474.461 103.824 487.133 103.824C494.621 103.824 501.725 102.096 508.445 98.64V74.016C508.445 72.288 508.253 71.136 507.869 70.56C507.485 69.984 506.573 69.696 505.133 69.696H486.845V64.8H506.717C509.405 64.8 511.229 65.472 512.189 66.816C513.149 68.16 513.629 70.368 513.629 73.44V101.664C505.757 106.656 496.925 109.152 487.133 109.152C472.925 109.152 460.781 104.16 450.701 94.176C440.717 84.096 435.725 71.952 435.725 57.744C435.725 43.44 440.717 31.248 450.701 21.168C460.781 11.088 472.925 6.048 487.133 6.048C497.309 6.048 506.669 8.784 515.213 14.256ZM535.416 54.144H540.168L540.744 68.544C542.76 63.936 545.736 60.24 549.672 57.456C553.608 54.672 558.168 53.184 563.352 52.992L563.208 57.744C557.256 57.936 552.216 59.904 548.088 63.648C543.96 67.392 541.512 72.144 540.744 77.904V108H535.416V54.144ZM582.137 108H576.809V54H582.137V108ZM584.585 33.12C584.585 34.368 584.105 35.424 583.145 36.288C582.281 37.152 581.225 37.584 579.977 37.584C578.825 37.584 577.769 37.152 576.809 36.288C575.945 35.424 575.513 34.368 575.513 33.12C575.513 31.776 575.993 30.672 576.953 29.808C577.913 28.848 578.969 28.368 580.121 28.368C581.273 28.368 582.281 28.848 583.145 29.808C584.105 30.672 584.585 31.776 584.585 33.12ZM690.364 108H685.036V69.12C684.844 65.952 683.644 63.312 681.436 61.2C679.228 59.088 676.012 57.936 671.788 57.744C665.548 57.744 660.076 59.616 655.372 63.36C650.764 67.008 648.46 71.568 648.46 77.04V108H643.132V69.12C642.94 65.952 641.74 63.312 639.532 61.2C637.324 59.088 634.108 57.936 629.884 57.744C623.548 57.744 618.076 59.664 613.468 63.504C608.86 67.344 606.556 72.144 606.556 77.904V108H601.228V54.144H605.98L606.556 68.544C608.572 63.84 611.596 60.096 615.628 57.312C619.756 54.528 624.508 53.136 629.884 53.136C635.356 53.04 639.772 54.48 643.132 57.456C646.492 60.432 648.268 64.32 648.46 69.12C650.476 64.224 653.5 60.336 657.532 57.456C661.564 54.576 666.316 53.136 671.788 53.136C677.26 53.04 681.676 54.48 685.036 57.456C688.396 60.432 690.172 64.32 690.364 69.12V108ZM760.311 108H754.983V99.36L755.415 92.88C753.399 97.776 750.279 101.76 746.055 104.832C741.831 107.808 736.983 109.296 731.511 109.296C723.735 109.296 717.111 106.56 711.639 101.088C706.167 95.52 703.431 88.896 703.431 81.216C703.431 73.44 706.167 66.816 711.639 61.344C717.111 55.776 723.735 52.992 731.511 52.992C737.079 52.992 741.879 54.432 745.911 57.312C749.943 60.192 752.967 64.032 754.983 68.832L755.703 54H760.311V108ZM708.759 81.072C708.759 87.696 710.871 93.264 715.095 97.776C719.415 102.288 724.887 104.544 731.511 104.544C738.231 104.544 743.703 102.288 747.927 97.776C752.247 93.264 754.407 87.696 754.407 81.072C754.407 74.352 752.247 68.784 747.927 64.368C743.703 59.952 738.231 57.744 731.511 57.744C724.887 57.744 719.415 59.952 715.095 64.368C710.871 68.784 708.759 74.352 708.759 81.072ZM786.328 108H781.144V-8.58307e-06H786.328V108Z" fill="#487E86"/>
<defs>
<radialGradient id="paint0_diamond" cx="0" cy="0" r="1" gradientUnits="userSpaceOnUse" gradientTransform="translate(964 72.4858) rotate(90) scale(40.4858 125)">
<stop stop-color="#E7D198"/>
<stop offset="1" stop-color="white" stop-opacity="0"/>
</radialGradient>
<radialGradient id="paint1_diamond" cx="0" cy="0" r="1" gradientUnits="userSpaceOnUse" gradientTransform="translate(964 72.4858) rotate(90) scale(40.4858 125)">
<stop stop-color="#E7D198"/>
<stop offset="1" stop-color="white" stop-opacity="0"/>
</radialGradient>
</defs>
</svg>
