<svg xmlns="http://www.w3.org/2000/svg" xmlns:xlink="http://www.w3.org/1999/xlink" style="isolation:isolate" viewBox="0 0 1076 110">
  <radialGradient id="_rgradient_0" fx="0.6432357330314407" fy="0.4999975300103739" cx="0.6432357330314407" cy="0.4999975300103739" r="1" gradientTransform="matrix(194.33,0,0,80.972,826,28)" gradientUnits="userSpaceOnUse"><stop offset="0%" stop-opacity="1" style="stop-color:rgb(231,209,152)"/><stop offset="100%" stop-opacity="0" style="stop-color:rgb(255,255,255)"/></radialGradient>
  <path d=" M 979.846 28 C 957.15 28 931.81 53.097 923.166 62.425 C 914.522 53.093 889.182 28 866.486 28 C 841.134 28 826 43.134 826 68.486 C 826 93.838 841.134 108.972 866.486 108.972 C 889.182 108.972 914.522 83.875 923.166 74.547 C 931.81 83.879 957.15 108.972 979.846 108.972 C 1005.2 108.972 1020.33 93.838 1020.33 68.486 C 1020.33 43.134 1005.2 28 979.846 28 Z  M 866.486 100.874 C 838.308 100.874 834.097 80.583 834.097 68.486 C 834.097 56.389 838.308 36.097 866.486 36.097 C 886.17 36.097 910.219 60.352 917.729 68.486 C 910.223 76.624 886.198 100.874 866.486 100.874 Z  M 979.846 100.874 C 960.162 100.874 936.113 76.619 928.603 68.486 C 936.109 60.348 960.134 36.097 979.846 36.097 C 1008.02 36.097 1012.23 56.389 1012.23 68.486 C 1012.23 80.583 1008.02 100.874 979.846 100.874 Z " fill="url(#_rgradient_0)"/>
  <path d=" M 1035.51 28 C 1012.82 28 987.478 53.097 978.834 62.425 C 970.19 53.093 944.85 28 922.154 28 C 896.802 28 881.668 43.134 881.668 68.486 C 881.668 93.838 896.802 108.972 922.154 108.972 C 944.85 108.972 970.19 83.875 978.834 74.547 C 987.478 83.879 1012.82 108.972 1035.51 108.972 C 1060.87 108.972 1076 93.838 1076 68.486 C 1076 43.134 1060.87 28 1035.51 28 Z  M 922.154 100.874 C 893.976 100.874 889.765 80.583 889.765 68.486 C 889.765 56.389 893.976 36.097 922.154 36.097 C 941.838 36.097 965.887 60.352 973.397 68.486 C 965.891 76.624 941.866 100.874 922.154 100.874 Z  M 1035.51 100.874 C 1015.83 100.874 991.781 76.619 984.271 68.486 C 991.777 60.348 1015.8 36.097 1035.51 36.097 C 1063.69 36.097 1067.9 56.389 1067.9 68.486 C 1067.9 80.583 1063.69 100.874 1035.51 100.874 Z " fill="rgb(219,178,70)"/>
  <radialGradient id="_rgradient_1" fx="0.35677088693575953" fy="0.4999975300103739" cx="0.35677088693575953" cy="0.4999975300103739" r="1" gradientTransform="matrix(194.332,0,0,80.972,881.668,28)" gradientUnits="userSpaceOnUse"><stop offset="0%" stop-opacity="1" style="stop-color:rgb(231,209,152)"/><stop offset="100%" stop-opacity="0" style="stop-color:rgb(255,255,255)"/></radialGradient><path d=" M 1035.51 28 C 1012.82 28 987.478 53.097 978.834 62.425 C 970.19 53.093 944.85 28 922.154 28 C 896.802 28 881.668 43.134 881.668 68.486 C 881.668 93.838 896.802 108.972 922.154 108.972 C 944.85 108.972 970.19 83.875 978.834 74.547 C 987.478 83.879 1012.82 108.972 1035.51 108.972 C 1060.87 108.972 1076 93.838 1076 68.486 C 1076 43.134 1060.87 28 1035.51 28 Z  M 922.154 100.874 C 893.976 100.874 889.765 80.583 889.765 68.486 C 889.765 56.389 893.976 36.097 922.154 36.097 C 941.838 36.097 965.887 60.352 973.397 68.486 C 965.891 76.624 941.866 100.874 922.154 100.874 Z  M 1035.51 100.874 C 1015.83 100.874 991.781 76.619 984.271 68.486 C 991.777 60.348 1015.8 36.097 1035.51 36.097 C 1063.69 36.097 1067.9 56.389 1067.9 68.486 C 1067.9 80.583 1063.69 100.874 1035.51 100.874 Z " fill="url(#_rgradient_1)"/>
  <path d=" M 0.104 108 L 0.104 7.2 L 5.432 7.2 L 5.432 103.248 L 61.016 103.248 L 61.016 108 L 0.104 108 L 0.104 108 L 0.104 108 L 0.104 108 L 0.104 108 L 0.104 108 L 0.104 108 L 0.104 108 L 0.104 108 L 0.104 108 L 0.104 108 L 0.104 108 Z  M 71.762 81.072 C 71.762 87.696 73.874 93.264 78.098 97.776 C 82.418 102.288 87.89 104.544 94.514 104.544 C 101.234 104.544 106.706 102.288 110.93 97.776 C 115.25 93.264 117.41 87.696 117.41 81.072 C 117.41 74.352 115.25 68.784 110.93 64.368 C 106.706 59.952 101.234 57.744 94.514 57.744 C 87.89 57.744 82.418 59.952 78.098 64.368 C 73.874 68.784 71.762 74.352 71.762 81.072 L 71.762 81.072 L 71.762 81.072 L 71.762 81.072 L 71.762 81.072 L 71.762 81.072 L 71.762 81.072 L 71.762 81.072 L 71.762 81.072 L 71.762 81.072 L 71.762 81.072 L 71.762 81.072 Z  M 137.947 54.144 L 142.699 54.144 L 143.275 68.544 C 145.291 63.936 148.267 60.24 152.203 57.456 C 156.139 54.672 160.699 53.184 165.883 52.992 L 165.739 57.744 C 159.787 57.936 154.747 59.904 150.619 63.648 C 146.491 67.392 144.043 72.144 143.275 77.904 L 143.275 108 L 137.947 108 L 137.947 54.144 L 137.947 54.144 L 137.947 54.144 L 137.947 54.144 L 137.947 54.144 L 137.947 54.144 L 137.947 54.144 L 137.947 54.144 L 137.947 54.144 L 137.947 54.144 L 137.947 54.144 Z  M 175.413 81.216 C 175.413 82.272 175.509 83.76 175.701 85.68 L 216.885 69.696 C 212.949 61.824 206.709 57.888 198.165 57.888 C 191.541 57.888 186.069 60.096 181.749 64.512 C 177.525 68.928 175.413 74.496 175.413 81.216 L 175.413 81.216 L 175.413 81.216 L 175.413 81.216 L 175.413 81.216 L 175.413 81.216 L 175.413 81.216 L 175.413 81.216 L 175.413 81.216 L 175.413 81.216 Z  M 286.71 108 L 281.382 108 L 281.382 69.12 C 281.19 65.952 279.99 63.312 277.782 61.2 C 275.574 59.088 272.358 57.936 268.134 57.744 C 261.798 57.744 256.326 59.664 251.718 63.504 C 247.11 67.344 244.806 72.144 244.806 77.904 L 244.806 108 L 239.478 108 L 239.478 54.144 L 244.23 54.144 L 244.806 68.544 C 246.822 63.84 249.846 60.096 253.878 57.312 C 258.006 54.528 262.758 53.136 268.134 53.136 C 273.606 53.04 278.022 54.48 281.382 57.456 C 284.742 60.432 286.518 64.32 286.71 69.12 L 286.71 108 L 286.71 108 L 286.71 108 L 286.71 108 L 286.71 108 L 286.71 108 L 286.71 108 L 286.71 108 L 286.71 108 Z  M 303.697 81.072 C 303.697 87.696 305.809 93.264 310.033 97.776 C 314.353 102.288 319.825 104.544 326.449 104.544 C 333.169 104.544 338.641 102.288 342.865 97.776 C 347.185 93.264 349.345 87.696 349.345 81.072 C 349.345 74.352 347.185 68.784 342.865 64.368 C 338.641 59.952 333.169 57.744 326.449 57.744 C 319.825 57.744 314.353 59.952 310.033 64.368 C 305.809 68.784 303.697 74.352 303.697 81.072 L 303.697 81.072 L 303.697 81.072 L 303.697 81.072 L 303.697 81.072 L 303.697 81.072 L 303.697 81.072 L 303.697 81.072 Z  M 502.213 14.256 L 498.325 18.288 C 490.837 13.68 482.773 11.376 474.133 11.376 C 461.461 11.376 450.613 15.936 441.589 25.056 C 432.565 34.176 428.053 45.072 428.053 57.744 C 428.053 70.416 432.565 81.264 441.589 90.288 C 450.613 99.312 461.461 103.824 474.133 103.824 C 481.621 103.824 488.725 102.096 495.445 98.64 L 495.445 74.016 C 495.445 72.288 495.253 71.136 494.869 70.56 C 494.485 69.984 493.573 69.696 492.133 69.696 L 473.845 69.696 L 473.845 64.8 L 493.717 64.8 C 496.405 64.8 498.229 65.472 499.189 66.816 C 500.149 68.16 500.629 70.368 500.629 73.44 L 500.629 101.664 C 492.757 106.656 483.925 109.152 474.133 109.152 C 459.925 109.152 447.781 104.16 437.701 94.176 C 427.717 84.096 422.725 71.952 422.725 57.744 C 422.725 43.44 427.717 31.248 437.701 21.168 C 447.781 11.088 459.925 6.048 474.133 6.048 C 484.309 6.048 493.669 8.784 502.213 14.256 L 502.213 14.256 L 502.213 14.256 L 502.213 14.256 L 502.213 14.256 L 502.213 14.256 Z  M 522.416 54.144 L 527.168 54.144 L 527.744 68.544 C 529.76 63.936 532.736 60.24 536.672 57.456 C 540.608 54.672 545.168 53.184 550.352 52.992 L 550.208 57.744 C 544.256 57.936 539.216 59.904 535.088 63.648 C 530.96 67.392 528.512 72.144 527.744 77.904 L 527.744 108 L 522.416 108 L 522.416 54.144 L 522.416 54.144 L 522.416 54.144 L 522.416 54.144 L 522.416 54.144 L 522.416 54.144 Z  M 569.137 108 L 563.809 108 L 563.809 54 L 569.137 54 L 569.137 108 L 569.137 108 L 569.137 108 L 569.137 108 L 569.137 108 L 569.137 108 Z  M 571.585 33.12 C 571.585 34.368 571.105 35.424 570.145 36.288 C 569.281 37.152 568.225 37.584 566.977 37.584 C 565.825 37.584 564.769 37.152 563.809 36.288 C 562.945 35.424 562.513 34.368 562.513 33.12 C 562.513 31.776 562.993 30.672 563.953 29.808 C 564.913 28.848 565.969 28.368 567.121 28.368 C 568.273 28.368 569.281 28.848 570.145 29.808 C 571.105 30.672 571.585 31.776 571.585 33.12 L 571.585 33.12 L 571.585 33.12 L 571.585 33.12 L 571.585 33.12 Z  M 677.364 108 L 672.036 108 L 672.036 69.12 C 671.844 65.952 670.644 63.312 668.436 61.2 C 666.228 59.088 663.012 57.936 658.788 57.744 C 652.548 57.744 647.076 59.616 642.372 63.36 C 637.764 67.008 635.46 71.568 635.46 77.04 L 635.46 108 L 630.132 108 L 630.132 69.12 C 629.94 65.952 628.74 63.312 626.532 61.2 C 624.324 59.088 621.108 57.936 616.884 57.744 C 610.548 57.744 605.076 59.664 600.468 63.504 C 595.86 67.344 593.556 72.144 593.556 77.904 L 593.556 108 L 588.228 108 L 588.228 54.144 L 592.98 54.144 L 593.556 68.544 C 595.572 63.84 598.596 60.096 602.628 57.312 C 606.756 54.528 611.508 53.136 616.884 53.136 C 622.356 53.04 626.772 54.48 630.132 57.456 C 633.492 60.432 635.268 64.32 635.46 69.12 C 637.476 64.224 640.5 60.336 644.532 57.456 C 648.564 54.576 653.316 53.136 658.788 53.136 C 664.26 53.04 668.676 54.48 672.036 57.456 C 675.396 60.432 677.172 64.32 677.364 69.12 L 677.364 108 L 677.364 108 L 677.364 108 L 677.364 108 Z  M 695.759 81.072 C 695.759 87.696 697.871 93.264 702.095 97.776 C 706.415 102.288 711.887 104.544 718.511 104.544 C 725.231 104.544 730.703 102.288 734.927 97.776 C 739.247 93.264 741.407 87.696 741.407 81.072 C 741.407 74.352 739.247 68.784 734.927 64.368 C 730.703 59.952 725.231 57.744 718.511 57.744 C 711.887 57.744 706.415 59.952 702.095 64.368 C 697.871 68.784 695.759 74.352 695.759 81.072 L 695.759 81.072 L 695.759 81.072 Z  M 122.738 81.072 C 122.738 88.848 120.002 95.52 114.53 101.088 C 109.058 106.56 102.386 109.296 94.514 109.296 C 86.738 109.296 80.114 106.56 74.642 101.088 C 69.17 95.52 66.434 88.896 66.434 81.216 C 66.434 73.44 69.17 66.816 74.642 61.344 C 80.114 55.776 86.738 52.992 94.514 52.992 C 102.386 52.992 109.058 55.728 114.53 61.2 C 120.002 66.672 122.738 73.296 122.738 81.072 L 122.738 81.072 L 122.738 81.072 L 122.738 81.072 L 122.738 81.072 L 122.738 81.072 L 122.738 81.072 L 122.738 81.072 L 122.738 81.072 L 122.738 81.072 L 122.738 81.072 L 122.738 81.072 Z  M 223.077 72.576 L 176.997 90.432 C 178.725 94.752 181.413 98.208 185.061 100.8 C 188.805 103.392 193.461 104.688 199.029 104.688 C 204.597 104.688 209.493 102.72 213.717 98.784 L 217.317 101.664 C 211.941 106.848 205.461 109.44 197.877 109.44 C 190.293 109.44 183.765 106.704 178.293 101.232 C 172.821 95.664 170.085 89.04 170.085 81.36 C 170.085 73.584 172.821 66.96 178.293 61.488 C 183.765 55.92 190.389 53.136 198.165 53.136 C 204.309 53.136 209.493 54.912 213.717 58.464 C 218.037 62.016 221.157 66.72 223.077 72.576 L 223.077 72.576 L 223.077 72.576 L 223.077 72.576 L 223.077 72.576 L 223.077 72.576 L 223.077 72.576 L 223.077 72.576 L 223.077 72.576 L 223.077 72.576 Z  M 355.249 108 L 349.921 108 L 349.921 99.36 L 350.353 92.88 C 348.337 97.776 345.216 101.76 340.992 104.832 C 336.768 107.808 331.921 109.296 326.449 109.296 C 318.673 109.296 312.048 106.56 306.577 101.088 C 301.104 95.52 298.368 88.896 298.368 81.216 C 298.368 73.44 301.104 66.816 306.577 61.344 C 312.048 55.776 318.673 52.992 326.449 52.992 C 332.017 52.992 336.816 54.432 340.849 57.312 C 344.881 60.192 347.905 64.032 349.921 68.832 L 350.641 54 L 355.249 54 L 355.249 108 L 355.249 108 L 355.249 108 L 355.249 108 L 355.249 108 L 355.249 108 L 355.249 108 L 355.249 108 L 355.249 108 Z  M 747.311 108 L 741.983 108 L 741.983 99.36 L 742.415 92.88 C 740.399 97.776 737.279 101.76 733.055 104.832 C 728.831 107.808 723.983 109.296 718.511 109.296 C 710.735 109.296 704.111 106.56 698.639 101.088 C 693.167 95.52 690.431 88.896 690.431 81.216 C 690.431 73.44 693.167 66.816 698.639 61.344 C 704.111 55.776 710.735 52.992 718.511 52.992 C 724.079 52.992 728.879 54.432 732.911 57.312 C 736.943 60.192 739.967 64.032 741.983 68.832 L 742.703 54 L 747.311 54 L 747.311 108 L 747.311 108 L 747.311 108 L 747.311 108 Z  M 773.328 108 L 768.144 108 L 768.144 0 L 773.328 0 L 773.328 108 L 773.328 108 Z " fill-rule="evenodd" fill="rgb(72,126,134)"/>
</svg>