<svg width="512" height="166" viewBox="0 0 512 166" fill="none" xmlns="http://www.w3.org/2000/svg">
<path d="M315.077 0C268.595 0 216.698 51.399 198.996 70.5026C181.294 51.3907 129.397 0 82.915 0C30.9936 0 0 30.9936 0 82.915C0 134.836 30.9936 165.83 82.915 165.83C129.397 165.83 181.294 114.431 198.996 95.3273C216.698 114.439 268.595 165.83 315.077 165.83C366.998 165.83 397.992 134.836 397.992 82.915C397.992 30.9936 366.998 0 315.077 0ZM82.915 149.247C25.2061 149.247 16.583 107.69 16.583 82.915C16.583 58.14 25.2061 16.583 82.915 16.583C123.228 16.583 172.48 66.2573 187.86 82.915C172.488 99.5809 123.286 149.247 82.915 149.247ZM315.077 149.247C274.764 149.247 225.512 99.5726 210.131 82.915C225.504 66.249 274.706 16.583 315.077 16.583C372.786 16.583 381.409 58.14 381.409 82.915C381.409 107.69 372.786 149.247 315.077 149.247Z" fill="white"/>
<path d="M429.085 0C382.603 0 330.706 51.399 313.004 70.5026C295.302 51.3907 243.405 0 196.923 0C145.002 0 114.008 30.9936 114.008 82.915C114.008 134.836 145.002 165.83 196.923 165.83C243.405 165.83 295.302 114.431 313.004 95.3273C330.706 114.439 382.603 165.83 429.085 165.83C481.006 165.83 512 134.836 512 82.915C512 30.9936 481.006 0 429.085 0ZM196.923 149.247C139.214 149.247 130.591 107.69 130.591 82.915C130.591 58.14 139.214 16.583 196.923 16.583C237.236 16.583 286.488 66.2573 301.868 82.915C286.496 99.5809 237.294 149.247 196.923 149.247ZM429.085 149.247C388.772 149.247 339.52 99.5726 324.139 82.915C339.512 66.249 388.714 16.583 429.085 16.583C486.794 16.583 495.417 58.14 495.417 82.915C495.417 107.69 486.794 149.247 429.085 149.247Z" fill="white"/>
</svg>
