<svg width="200" height="65" viewBox="0 0 200 65" fill="none" xmlns="http://www.w3.org/2000/svg">
<path d="M123.077 0C104.92 0 84.6478 20.0777 77.7328 27.5401C70.8178 20.0745 50.5458 0 32.3887 0C12.1069 0 0 12.1069 0 32.3887C0 52.6704 12.1069 64.7773 32.3887 64.7773C50.5458 64.7773 70.8178 44.6996 77.7328 37.2372C84.6478 44.7028 104.92 64.7773 123.077 64.7773C143.359 64.7773 155.466 52.6704 155.466 32.3887C155.466 12.1069 143.359 0 123.077 0ZM32.3887 58.2996C9.84615 58.2996 6.47773 42.0664 6.47773 32.3887C6.47773 22.7109 9.84615 6.47773 32.3887 6.47773C48.136 6.47773 67.3749 25.8818 73.383 32.3887C67.3781 38.8988 48.1587 58.2996 32.3887 58.2996ZM123.077 58.2996C107.33 58.2996 88.0907 38.8955 82.0826 32.3887C88.0875 25.8785 107.307 6.47773 123.077 6.47773C145.619 6.47773 148.988 22.7109 148.988 32.3887C148.988 42.0664 145.619 58.2996 123.077 58.2996Z" fill="#DBB246"/>
<path d="M123.077 0C104.92 0 84.6478 20.0777 77.7328 27.5401C70.8178 20.0745 50.5458 0 32.3887 0C12.1069 0 0 12.1069 0 32.3887C0 52.6704 12.1069 64.7773 32.3887 64.7773C50.5458 64.7773 70.8178 44.6996 77.7328 37.2372C84.6478 44.7028 104.92 64.7773 123.077 64.7773C143.359 64.7773 155.466 52.6704 155.466 32.3887C155.466 12.1069 143.359 0 123.077 0ZM32.3887 58.2996C9.84615 58.2996 6.47773 42.0664 6.47773 32.3887C6.47773 22.7109 9.84615 6.47773 32.3887 6.47773C48.136 6.47773 67.3749 25.8818 73.383 32.3887C67.3781 38.8988 48.1587 58.2996 32.3887 58.2996ZM123.077 58.2996C107.33 58.2996 88.0907 38.8955 82.0826 32.3887C88.0875 25.8785 107.307 6.47773 123.077 6.47773C145.619 6.47773 148.988 22.7109 148.988 32.3887C148.988 42.0664 145.619 58.2996 123.077 58.2996Z" fill="url(#paint0_diamond)"/>
<path d="M167.611 0C149.454 0 129.182 20.0777 122.267 27.5401C115.352 20.0745 95.0802 0 76.9231 0C56.6413 0 44.5344 12.1069 44.5344 32.3887C44.5344 52.6704 56.6413 64.7773 76.9231 64.7773C95.0802 64.7773 115.352 44.6996 122.267 37.2372C129.182 44.7028 149.454 64.7773 167.611 64.7773C187.893 64.7773 200 52.6704 200 32.3887C200 12.1069 187.893 0 167.611 0ZM76.9231 58.2996C54.3806 58.2996 51.0121 42.0664 51.0121 32.3887C51.0121 22.7109 54.3806 6.47773 76.9231 6.47773C92.6704 6.47773 111.909 25.8818 117.917 32.3887C111.913 38.8988 92.6931 58.2996 76.9231 58.2996ZM167.611 58.2996C151.864 58.2996 132.625 38.8955 126.617 32.3887C132.622 25.8785 151.841 6.47773 167.611 6.47773C190.154 6.47773 193.522 22.7109 193.522 32.3887C193.522 42.0664 190.154 58.2996 167.611 58.2996Z" fill="#DBB246"/>
<path d="M167.611 0C149.454 0 129.182 20.0777 122.267 27.5401C115.352 20.0745 95.0802 0 76.9231 0C56.6413 0 44.5344 12.1069 44.5344 32.3887C44.5344 52.6704 56.6413 64.7773 76.9231 64.7773C95.0802 64.7773 115.352 44.6996 122.267 37.2372C129.182 44.7028 149.454 64.7773 167.611 64.7773C187.893 64.7773 200 52.6704 200 32.3887C200 12.1069 187.893 0 167.611 0ZM76.9231 58.2996C54.3806 58.2996 51.0121 42.0664 51.0121 32.3887C51.0121 22.7109 54.3806 6.47773 76.9231 6.47773C92.6704 6.47773 111.909 25.8818 117.917 32.3887C111.913 38.8988 92.6931 58.2996 76.9231 58.2996ZM167.611 58.2996C151.864 58.2996 132.625 38.8955 126.617 32.3887C132.622 25.8785 151.841 6.47773 167.611 6.47773C190.154 6.47773 193.522 22.7109 193.522 32.3887C193.522 42.0664 190.154 58.2996 167.611 58.2996Z" fill="url(#paint1_diamond)"/>
<defs>
<radialGradient id="paint0_diamond" cx="0" cy="0" r="1" gradientUnits="userSpaceOnUse" gradientTransform="translate(100 32.3887) rotate(90) scale(32.3887 100)">
<stop stop-color="#E7D198"/>
<stop offset="1" stop-color="white" stop-opacity="0"/>
</radialGradient>
<radialGradient id="paint1_diamond" cx="0" cy="0" r="1" gradientUnits="userSpaceOnUse" gradientTransform="translate(100 32.3887) rotate(90) scale(32.3887 100)">
<stop stop-color="#E7D198"/>
<stop offset="1" stop-color="white" stop-opacity="0"/>
</radialGradient>
</defs>
</svg>
